<?xml version="1.0" encoding="UTF-8"?> <svg xmlns="http://www.w3.org/2000/svg" width="87" height="48" viewBox="0 0 87 48" fill="none"> <path fill-rule="evenodd" clip-rule="evenodd" d="M80.2093 35.6137C79.8275 37.0421 79.7921 38.5199 79.9124 39.9836C79.9407 40.3797 80.1174 40.7261 80.3932 40.9877C80.7821 41.3767 81.3478 41.5888 81.8993 41.5181C82.8893 41.3908 83.5045 40.4928 83.4267 39.5382C83.4196 39.4745 83.4196 39.418 83.4125 39.3543C83.3984 38.8735 83.3843 38.3927 83.3984 37.9118C83.4267 37.629 83.462 37.3391 83.5115 37.0491C83.7327 36.0169 84.014 34.9967 84.2946 33.9787C84.4446 33.4346 84.5944 32.8912 84.7348 32.3469C85.0793 31.0105 85.3364 29.6405 85.5914 28.2828L85.6116 28.175C85.6411 28.0199 85.6707 27.8646 85.7003 27.7092C86.041 25.9227 86.3861 24.1138 86.5097 22.2989C86.5662 21.3373 86.6016 20.3826 86.545 19.4209L86.5421 19.3768C86.4934 18.6464 86.4406 17.8515 86.1702 17.1653C85.9016 16.5006 85.4561 15.942 84.7348 15.7581C84.4237 15.6733 84.0701 15.6733 83.7661 15.7794C83.5626 15.844 83.3743 15.9386 83.2074 16.0573C82.9369 15.9753 82.6621 15.9092 82.3802 15.8642C80.779 15.5783 79.1362 15.5097 77.5042 15.4416C77.1181 15.4255 76.7327 15.4094 76.3485 15.3904L76.3627 15.3904C74.6232 15.2632 72.8979 15.1076 71.1796 14.8601C69.4189 14.6126 67.6653 14.3157 65.9187 13.9974C65.155 13.8419 64.3914 13.6722 63.6277 13.4883L62.3761 13.1701C61.7044 12.9934 61.0255 13.1348 60.5235 13.6368C59.8376 14.3227 59.8517 15.4541 60.5235 16.14C60.8417 16.4723 61.2023 16.6208 61.6337 16.741C61.8317 16.7976 62.0367 16.8188 62.2347 16.7905C63.4792 17.1016 64.7237 17.3845 65.9824 17.6108C67.5663 17.8936 69.1361 18.1482 70.727 18.3815C72.2544 18.6078 73.7889 18.7563 75.3303 18.8694C76.5405 18.9571 77.7555 19.0207 78.9673 19.084C79.2212 19.0972 79.475 19.1105 79.7285 19.124C80.4144 19.1735 81.1003 19.2371 81.7791 19.3502C81.8258 19.3554 81.8724 19.3682 81.9163 19.3802C81.9323 19.3846 81.9479 19.3889 81.963 19.3927C81.9592 19.4115 81.9555 19.4263 81.9517 19.4392C81.9484 19.4506 81.9451 19.4605 81.9418 19.4705C81.8923 19.6048 81.8428 19.7391 81.7862 19.8664C81.5458 20.3331 81.2842 20.7645 81.0013 21.2029L80.8909 21.3625C79.7816 22.9651 78.6616 24.5831 77.4092 26.0819C76.5509 27.061 75.6099 27.9369 74.6614 28.8199C74.5003 28.9698 74.3389 29.12 74.1777 29.271C73.9786 29.4423 73.7806 29.6139 73.5827 29.7854C72.8739 30.3995 72.1678 31.0114 71.4271 31.5973C70.4513 32.361 69.4543 33.0893 68.4431 33.8176C68.3096 33.9055 68.1763 33.9935 68.0431 34.0815C67.3503 34.5389 66.6586 34.9958 65.947 35.4228L65.9381 35.428C64.838 36.0768 63.7379 36.7256 62.6307 37.3532C61.7766 37.8404 60.9085 38.3137 60.0454 38.7844C59.8438 38.8943 59.6425 39.0041 59.4416 39.1139C58.8398 39.4482 58.2219 39.7471 57.6052 40.0453C57.309 40.1886 57.013 40.3317 56.7193 40.4786C56.7599 40.4542 56.8005 40.4345 56.8397 40.4155C56.8689 40.4014 56.8972 40.3876 56.9243 40.3726L56.771 40.4415C55.2037 41.1467 53.6465 41.8472 52.0099 42.4019C50.7442 42.805 49.4573 43.1161 48.1633 43.3777C47.0673 43.5828 45.9642 43.7242 44.8611 43.8091C43.9206 43.8586 42.9802 43.8515 42.0327 43.7949C40.9225 43.7171 39.8335 43.5757 38.7375 43.3848C37.9385 43.2222 37.1607 43.0242 36.3829 42.7838C35.6546 42.5363 34.9474 42.2393 34.2474 41.907C33.5403 41.5393 32.8544 41.1503 32.1897 40.7261C31.3765 40.1816 30.6058 39.5947 29.8704 38.9583C29.1209 38.2795 28.4067 37.5512 27.7279 36.7875C27.5794 36.6107 27.438 36.441 27.2895 36.2642C29.5381 36.4905 31.8291 36.5188 34.0636 36.1794C36.5597 35.8046 39.2396 35.1187 41.2336 33.4782C43.1357 31.9155 44.451 29.8225 45.25 27.5102C45.9995 25.3324 46.3389 22.8999 46.0349 20.6018C45.7025 18.0633 44.6772 15.7228 43.0226 13.7712C41.3963 11.8478 39.1972 10.5256 36.7294 10.0094C34.3111 9.50026 31.8009 10.0165 29.7007 11.2822C27.4309 12.6469 25.4086 14.4854 23.7186 16.5147C22.1064 18.4522 20.6497 20.6442 19.9285 23.0767C19.2214 25.4667 19.285 28.0759 19.9992 30.4589C20.0487 30.6074 20.0911 30.7488 20.1406 30.8973C19.78 30.7488 19.4194 30.5862 19.0729 30.4235C17.991 29.8932 16.9445 29.2992 15.9333 28.6416C15.12 28.088 14.3398 27.5014 13.5797 26.869C13.5553 26.846 13.53 26.8241 13.5025 26.8043C13.4973 26.7993 13.492 26.7942 13.4868 26.789C12.61 26.0112 11.7826 25.1839 11.0048 24.3071L10.9977 24.3C10.9714 24.2737 10.9451 24.2419 10.9171 24.2098C9.99696 23.119 9.15123 21.9938 8.35315 20.821L8.12958 20.4634C7.33432 19.1923 6.54483 17.9303 5.88536 16.5855C5.6096 15.9986 5.35505 15.3905 5.12875 14.7823C4.96613 14.2662 4.8247 13.757 4.71156 13.2338C4.61257 12.6539 4.54189 12.0741 4.49238 11.4872C4.47119 10.8296 4.47824 10.172 4.50651 9.50733C4.58428 8.32643 4.71862 7.14559 4.93076 5.9718C5.01562 5.54754 5.12171 5.13036 5.24899 4.72023C5.31971 4.50811 5.39747 4.30304 5.48938 4.09797C5.53659 4.00363 5.59007 3.91554 5.64353 3.82746C5.67019 3.78354 5.69685 3.73961 5.72274 3.69491C5.75102 3.65248 5.79344 3.61005 5.82172 3.56762C5.86785 3.51381 5.91605 3.46206 5.96639 3.41018C6.0086 3.36659 6.0523 3.32288 6.09748 3.2777C6.78337 2.59181 6.78337 1.46045 6.0975 0.77458C5.41163 0.0887075 4.27316 0.0957316 3.59434 0.774559L3.51657 0.85233C2.94382 1.45339 2.45587 2.1251 2.14476 2.90294C1.77 3.82925 1.51544 4.80508 1.3599 5.78089C1.20435 6.75671 1.10531 7.74662 1.00632 8.73657C0.808314 10.5892 0.900252 12.5337 1.33161 14.351C1.81245 16.3733 2.68219 18.2472 3.70748 20.0362C5.0439 22.3767 6.58539 24.6253 8.36023 26.6546C8.7845 27.1355 9.21583 27.5951 9.6613 28.0265C12.2564 30.6215 15.3464 32.7216 18.7406 34.1359C19.879 34.6096 21.0599 35.0127 22.2549 35.345C22.6509 35.9814 23.0751 36.5895 23.5206 37.1905C26.646 41.3766 30.8674 44.8909 35.9515 46.3547C37.2879 46.7435 38.6598 47.0123 40.0457 47.1678C41.2831 47.3022 42.5418 47.4012 43.7863 47.387C46.2965 47.3375 48.7997 46.9416 51.225 46.2981C54.0676 45.5485 56.7617 44.3818 59.3851 43.0878C61.1316 42.2322 62.8357 41.3059 64.5257 40.3372C65.4026 39.8422 66.2793 39.3331 67.1491 38.8169C67.9905 38.3148 68.8108 37.7916 69.631 37.2542C71.2786 36.1864 72.8272 34.9915 74.3616 33.7682C74.9027 33.3332 75.4199 32.8743 75.9371 32.4155C76.1093 32.2627 76.2815 32.1099 76.4546 31.958C77.3527 31.1872 78.2224 30.3599 79.0426 29.5114C80.3586 28.1544 81.4929 26.638 82.5825 25.0937C82.4313 26.0051 82.2587 26.9128 82.0864 27.8189L82.0478 28.0194L81.9823 28.3391C81.6651 29.888 81.3469 31.4414 80.9235 32.9762C80.6761 33.8601 80.4427 34.7299 80.2093 35.6137ZM13.5042 26.8059C13.5294 26.827 13.5546 26.848 13.5797 26.869C13.5986 26.8867 13.6169 26.905 13.6352 26.9233C13.6105 26.8986 13.5858 26.8774 13.561 26.8562C13.5421 26.8399 13.5231 26.8237 13.5042 26.8059ZM13.5042 26.8059L13.5009 26.8031L13.5025 26.8043L13.5042 26.8059ZM38.5961 14.5207C38.879 14.7187 39.1477 14.9308 39.4234 15.15C39.5719 15.2844 39.7133 15.4258 39.8689 15.5672C40.0103 15.7086 40.1447 15.843 40.2791 15.9915C40.5619 16.3309 40.8306 16.6845 41.0852 17.0522C41.3256 17.434 41.5448 17.8371 41.7498 18.2401C41.8842 18.5583 42.0114 18.8835 42.1316 19.2159C42.2448 19.5977 42.3438 19.9796 42.4287 20.3756C42.4994 20.7574 42.5488 21.1322 42.5842 21.5211C42.6125 21.9877 42.6125 22.4403 42.5983 22.907C42.5488 23.5363 42.464 24.1586 42.3509 24.7808C42.2378 25.29 42.1034 25.792 41.9478 26.2869C41.7781 26.7819 41.5801 27.2628 41.3609 27.7224C41.1629 28.1042 40.9437 28.479 40.7174 28.8467C40.4982 29.1649 40.2508 29.4831 40.0033 29.7871C39.777 30.0417 39.5437 30.2751 39.3033 30.5013C39.084 30.6781 38.8719 30.8478 38.6385 31.0104C38.3557 31.1801 38.0728 31.3498 37.7759 31.5054C37.3516 31.7034 36.9203 31.866 36.4819 32.0216C35.8172 32.2337 35.1525 32.4034 34.4666 32.5378C33.6464 32.6792 32.8191 32.7853 31.9917 32.8489C30.9169 32.9105 29.8551 32.9058 28.781 32.8477C27.563 32.7624 26.3519 32.6293 25.154 32.4034C24.9631 32.3681 24.7651 32.3256 24.5671 32.2832C24.4611 32.0782 24.3479 31.866 24.2419 31.661C23.9873 31.1236 23.761 30.572 23.563 29.9922C23.4074 29.4972 23.2731 28.981 23.167 28.4648C23.0893 28.0052 23.0327 27.5385 22.9903 27.0719C22.9832 26.6829 22.9832 26.3011 22.9973 25.9193C23.0327 25.5587 23.0822 25.198 23.1458 24.8374C23.2095 24.5757 23.2731 24.3283 23.3438 24.0737C23.5347 23.5293 23.7469 23.006 23.9873 22.4827C24.3126 21.8464 24.6661 21.2382 25.055 20.6372C25.5641 19.8876 26.1157 19.1805 26.7026 18.4947C27.4238 17.7027 28.1734 16.939 28.9724 16.2248C29.5593 15.7228 30.1532 15.2419 30.7967 14.7965C31.2634 14.4995 31.7372 14.2237 32.2251 13.9763C32.3653 13.9161 32.5034 13.8583 32.6417 13.8027C32.7474 13.7602 32.8533 13.7191 32.9605 13.6793C33.2575 13.5944 33.5545 13.5095 33.8585 13.4459C34.0848 13.4176 34.3039 13.3964 34.5232 13.3752C34.7706 13.3681 34.9969 13.3681 35.2373 13.3823C35.4778 13.3964 35.7182 13.4247 35.9586 13.4671C36.2909 13.5449 36.6162 13.6298 36.9415 13.7287C37.2526 13.8419 37.5567 13.9621 37.8536 14.1035C38.1082 14.2308 38.3486 14.3722 38.5961 14.5207Z" fill="white" fill-opacity="0.3"></path> </svg> 