<?xml version="1.0" encoding="UTF-8"?> <svg xmlns="http://www.w3.org/2000/svg" width="40" height="41" viewBox="0 0 40 41" fill="none"> <g clip-path="url(#clip0_64_778)"> <path d="M31.6665 0.713672C33.8228 0.716288 35.8901 1.57404 37.4149 3.09879C38.9396 4.62357 39.7974 6.69088 39.8 8.84724V17.1803C39.8 17.5693 39.6455 17.9424 39.3704 18.2174C39.0953 18.4925 38.7223 18.647 38.3333 18.647C37.9443 18.647 37.5713 18.4925 37.2962 18.2174C37.0212 17.9424 36.8666 17.5693 36.8666 17.1803V8.847L36.8666 8.84623C36.8637 8.07356 36.6858 7.31159 36.3463 6.61748L36.2233 6.36588L36.0252 6.56391L2.70353 39.8839L2.70112 39.8864C2.56582 40.0265 2.40398 40.1382 2.22504 40.2151C2.0461 40.2919 1.85365 40.3324 1.6589 40.3341C1.46416 40.3358 1.27103 40.2987 1.09078 40.2249C0.910535 40.1512 0.746779 40.0423 0.60907 39.9046L0.467648 40.046L0.609068 39.9046C0.47136 39.7669 0.362455 39.6031 0.28871 39.4229C0.214964 39.2426 0.177855 39.0495 0.179548 38.8547C0.18124 38.66 0.2217 38.4675 0.298566 38.2886C0.375433 38.1097 0.487167 37.9478 0.627248 37.8125L0.627269 37.8125L0.629731 37.8101L33.9497 4.48842L34.1478 4.29038L33.8962 4.16734C33.2021 3.82789 32.4401 3.65 31.6674 3.64701H31.6666H23.3333C22.9443 3.64701 22.5713 3.49248 22.2962 3.21743L22.1548 3.35885L22.2962 3.21743C22.0212 2.94237 21.8666 2.56932 21.8666 2.18034C21.8666 1.79135 22.0212 1.4183 22.2962 1.14325L22.1557 1.00273L22.2962 1.14325C22.5713 0.868195 22.9443 0.713672 23.3333 0.713672H31.6665Z" fill="#36ACA0" stroke="#F3FBF9" stroke-width="0.4"></path> <path d="M13.5926 15.8907C12.5292 16.6012 11.2789 16.9805 9.99992 16.9805C8.28485 16.9805 6.64003 16.2992 5.4273 15.0865C4.21456 13.8737 3.53325 12.2289 3.53325 10.5138C3.53325 9.23485 3.91252 7.98459 4.62308 6.92115C5.33365 5.85771 6.3436 5.02886 7.52523 4.53942C8.70686 4.04997 10.0071 3.92191 11.2615 4.17143C12.5159 4.42094 13.6682 5.03683 14.5725 5.94121C15.4769 6.84559 16.0928 7.99784 16.3423 9.25225C16.5919 10.5067 16.4638 11.8069 15.9743 12.9885C15.4849 14.1702 14.656 15.1801 13.5926 15.8907ZM11.9629 7.57598C11.3819 7.18773 10.6987 6.9805 9.99992 6.9805C9.06282 6.9805 8.1641 7.35276 7.50147 8.01539C6.83885 8.67802 6.46659 9.57674 6.46659 10.5138C6.46659 11.2127 6.67381 11.8958 7.06206 12.4769C7.45031 13.0579 8.00214 13.5108 8.64777 13.7782C9.2934 14.0456 10.0038 14.1156 10.6892 13.9793C11.3746 13.8429 12.0042 13.5064 12.4984 13.0123C12.9925 12.5181 13.329 11.8886 13.4654 11.2032C13.6017 10.5178 13.5317 9.80732 13.2643 9.16169C12.9969 8.51606 12.544 7.96423 11.9629 7.57598Z" fill="#36ACA0" stroke="#F3FBF9" stroke-width="0.4"></path> <path d="M26.4075 25.137C27.4709 24.4264 28.7212 24.0472 30.0002 24.0472C31.7152 24.0472 33.3601 24.7285 34.5728 25.9412C35.7855 27.1539 36.4668 28.7988 36.4668 30.5138C36.4668 31.7928 36.0876 33.0431 35.377 34.1065C34.6664 35.17 33.6565 35.9988 32.4749 36.4883C31.2932 36.9777 29.993 37.1058 28.7386 36.8562C27.4842 36.6067 26.3319 35.9908 25.4275 35.0865C24.5232 34.1821 23.9073 33.0298 23.6578 31.7754C23.4082 30.521 23.5363 29.2208 24.0257 28.0391C24.5152 26.8575 25.344 25.8476 26.4075 25.137ZM28.0372 33.4517C28.6182 33.8399 29.3013 34.0472 30.0002 34.0472C30.9373 34.0472 31.836 33.6749 32.4986 33.0123C33.1612 32.3496 33.5335 31.4509 33.5335 30.5138C33.5335 29.815 33.3263 29.1319 32.938 28.5508C32.5498 27.9698 31.998 27.5169 31.3523 27.2495C30.7067 26.982 29.9962 26.9121 29.3108 27.0484C28.6254 27.1847 27.9959 27.5212 27.5017 28.0154C27.0076 28.5095 26.6711 29.1391 26.5347 29.8245C26.3984 30.5099 26.4684 31.2204 26.7358 31.866C27.0032 32.5116 27.4561 33.0634 28.0372 33.4517Z" fill="#36ACA0" stroke="#F3FBF9" stroke-width="0.4"></path> </g> <defs> <clipPath id="clip0_64_778"> <rect width="40" height="40" fill="white" transform="translate(0 0.513672)"></rect> </clipPath> </defs> </svg> 