<?xml version="1.0" encoding="UTF-8"?> <svg xmlns="http://www.w3.org/2000/svg" width="40" height="41" viewBox="0 0 40 41" fill="none"> <g clip-path="url(#clip0_64_796)"> <path d="M25.4446 18.6621C23.833 19.7389 21.9384 20.3136 20.0002 20.3137C17.4018 20.3111 14.9106 19.2777 13.0733 17.4404C11.236 15.6031 10.2026 13.1119 10.2 10.5136C10.2 8.57536 10.7748 6.68066 11.8516 5.06909C12.9284 3.45749 14.459 2.2014 16.2497 1.45966C18.0404 0.717918 20.0109 0.523845 21.9119 0.901981C23.8129 1.28012 25.5591 2.21348 26.9296 3.58403C28.3002 4.95459 29.2336 6.70078 29.6117 8.60179C29.9898 10.5028 29.7958 12.4733 29.054 14.264C28.3123 16.0547 27.0562 17.5852 25.4446 18.6621ZM23.8149 4.80425C22.6857 4.04973 21.3581 3.64701 20 3.64701C18.1788 3.64701 16.4323 4.37046 15.1445 5.65821C13.8568 6.94596 13.1333 8.69252 13.1333 10.5137C13.1333 11.8718 13.5361 13.1994 14.2906 14.3286C15.0451 15.4578 16.1175 16.3379 17.3722 16.8577C18.627 17.3774 20.0076 17.5134 21.3396 17.2484C22.6716 16.9835 23.8951 16.3295 24.8555 15.3691C25.8158 14.4088 26.4698 13.1853 26.7347 11.8533C26.9997 10.5213 26.8637 9.14064 26.344 7.88592C25.8243 6.6312 24.9441 5.55877 23.8149 4.80425Z" fill="#36ACA0" stroke="#F3FBF9" stroke-width="0.4"></path> <path d="M9.53969 28.3878C12.3143 25.6133 16.0762 24.0526 20 24.0481C23.9238 24.0526 27.6857 25.6133 30.4603 28.3878C33.2349 31.1625 34.7956 34.9244 34.8 38.8484C34.7999 39.2373 34.6454 39.6102 34.3704 39.8852C34.0954 40.1603 33.7223 40.3148 33.3333 40.3148C32.9444 40.3148 32.5713 40.1603 32.2962 39.8852C32.0212 39.6102 31.8667 39.2371 31.8667 38.8481C31.8667 35.7009 30.6164 32.6826 28.391 30.4571C26.1656 28.2317 23.1472 26.9815 20 26.9815C16.8528 26.9815 13.8344 28.2317 11.609 30.4571C9.38357 32.6826 8.13333 35.7009 8.13333 38.8481C8.13333 39.2371 7.97881 39.6102 7.70376 39.8852C7.4287 40.1603 7.05565 40.3148 6.66667 40.3148C6.27768 40.3148 5.90463 40.1603 5.62958 39.8852C5.35455 39.6102 5.20003 39.2372 5.2 38.8483C5.20438 34.9244 6.76508 31.1624 9.53969 28.3878Z" fill="#36ACA0" stroke="#F3FBF9" stroke-width="0.4"></path> </g> <defs> <clipPath id="clip0_64_796"> <rect width="40" height="40" fill="white" transform="translate(0 0.513672)"></rect> </clipPath> </defs> </svg> 