<?xml version="1.0" encoding="UTF-8"?> <svg xmlns="http://www.w3.org/2000/svg" width="40" height="41" viewBox="0 0 40 41" fill="none"> <g clip-path="url(#clip0_64_722)"> <path d="M11.4667 26.3472C11.4667 27.6174 10.437 28.6472 9.16675 28.6472C7.89649 28.6472 6.86675 27.6174 6.86675 26.3472C6.86675 25.0769 7.89649 24.0472 9.16675 24.0472C10.437 24.0472 11.4667 25.0769 11.4667 26.3472Z" fill="#36ACA0" stroke="#F3FBF9" stroke-width="0.4"></path> <path d="M36.6667 14.047H36.8667V13.847C36.8667 12.4679 36.3188 11.1452 35.3436 10.1701C34.3684 9.19486 33.0458 8.64701 31.6667 8.64701H8.33333C6.95421 8.64701 5.63157 9.19486 4.65638 10.1701C3.68119 11.1452 3.13333 12.4679 3.13333 13.847V14.047H3.33333H36.6667ZM3.33333 16.9803H3.13333V17.1803V27.1803C3.13333 28.5595 3.68119 29.8821 4.65638 30.8573C5.63157 31.8325 6.95421 32.3803 8.33333 32.3803H31.6667C33.0458 32.3803 34.3684 31.8325 35.3436 30.8573C36.3188 29.8821 36.8667 28.5595 36.8667 27.1803V17.1803V16.9803H36.6667H3.33333ZM2.58512 8.09879C4.10987 6.57404 6.17713 5.71629 8.33345 5.71367H31.6665C33.8229 5.71629 35.8901 6.57404 37.4149 8.09879C38.9397 9.62357 39.7974 11.6909 39.8 13.8472V27.1801C39.7974 29.3365 38.9397 31.4038 37.4149 32.9286C35.8901 34.4533 33.8228 35.3111 31.6664 35.3137H8.33357C6.17721 35.3111 4.1099 34.4533 2.58512 32.9286C1.06037 31.4038 0.202616 29.3365 0.2 27.1802V13.8471C0.202616 11.6908 1.06037 9.62355 2.58512 8.09879Z" fill="#36ACA0" stroke="#F3FBF9" stroke-width="0.4"></path> </g> <defs> <clipPath id="clip0_64_722"> <rect width="40" height="40" fill="white" transform="translate(0 0.513672)"></rect> </clipPath> </defs> </svg> 