<?xml version="1.0" encoding="UTF-8"?> <svg xmlns="http://www.w3.org/2000/svg" width="14" height="14" viewBox="0 0 14 14" fill="none"> <g clip-path="url(#clip0_84_73)"> <path d="M10.3613 14C5.61824 14.1604 -2.92641 5.68457 1.04083 1.08907L1.71167 0.50574C2.05124 0.177479 2.50641 -0.00387271 2.97868 0.000930802C3.45095 0.00573431 3.90234 0.196306 4.23516 0.531407C4.25315 0.549726 4.26991 0.569213 4.28533 0.58974L5.33533 1.95416C5.65442 2.29181 5.83172 2.73908 5.83064 3.20365C5.82955 3.66823 5.65016 4.11466 5.32949 4.45082L4.654 5.30016C5.02798 6.20845 5.57766 7.03394 6.27147 7.72926C6.96529 8.42458 7.7896 8.97604 8.69707 9.35199L9.55107 8.67241C9.89161 8.35965 10.3369 8.18582 10.7993 8.18517C11.2617 8.18452 11.7075 8.35711 12.0489 8.66891L13.4139 9.71891C13.4343 9.73429 13.4538 9.75084 13.4722 9.76849C13.8089 10.1082 13.9977 10.5671 13.9977 11.0454C13.9977 11.5237 13.8089 11.9826 13.4722 12.3223L12.9408 12.9348C12.6037 13.2756 12.2018 13.5454 11.7588 13.7283C11.3158 13.9113 10.8406 14.0036 10.3613 14ZM2.95825 1.16666C2.87442 1.16659 2.7914 1.18304 2.71393 1.21507C2.63646 1.2471 2.56606 1.29408 2.50675 1.35332L1.83533 1.93666C-1.45816 5.89632 8.62007 15.4134 12.0868 12.138L12.6188 11.5249C12.6821 11.4686 12.7335 11.4004 12.7703 11.3241C12.807 11.2478 12.8283 11.1651 12.8329 11.0805C12.8375 10.996 12.8254 10.9114 12.7971 10.8316C12.7689 10.7518 12.7251 10.6783 12.6684 10.6155L11.311 9.57307C11.2902 9.55778 11.2707 9.5408 11.2527 9.52232C11.1309 9.40635 10.9693 9.34166 10.8012 9.34166C10.633 9.34166 10.4714 9.40635 10.3497 9.52232C10.3342 9.53801 10.3178 9.55281 10.3007 9.56666L9.15849 10.4767C9.0792 10.5398 8.98484 10.5811 8.8847 10.5967C8.78456 10.6122 8.6821 10.6014 8.58741 10.5653C7.41148 10.1273 6.34345 9.44155 5.45567 8.55468C4.56789 7.6678 3.8811 6.60047 3.44183 5.42499C3.40294 5.32896 3.39033 5.2243 3.4053 5.12177C3.42027 5.01925 3.46228 4.92256 3.527 4.84166L4.4335 3.70066C4.44698 3.68337 4.46159 3.667 4.47725 3.65166C4.5964 3.53148 4.66326 3.3691 4.66326 3.19987C4.66326 3.03063 4.5964 2.86825 4.47725 2.74807C4.45906 2.72993 4.44229 2.71043 4.42708 2.68974L3.387 1.33407C3.26947 1.22789 3.11664 1.16925 2.95825 1.16957V1.16666ZM13.1625 7.33599C16.0733 3.05141 10.9458 -2.07084 6.66591 0.839407C6.60137 0.882499 6.54607 0.938037 6.50326 1.00277C6.46045 1.0675 6.43099 1.14012 6.4166 1.21638C6.40221 1.29264 6.40318 1.371 6.41946 1.44688C6.43573 1.52276 6.46699 1.59463 6.51138 1.65828C6.55578 1.72193 6.61244 1.77608 6.67803 1.81756C6.74362 1.85904 6.81683 1.88702 6.89336 1.89985C6.9699 1.91268 7.04823 1.91011 7.12376 1.89229C7.19929 1.87447 7.27051 1.84176 7.33324 1.79607C10.5264 -0.396676 14.3974 3.47841 12.2058 6.66924C12.1591 6.73192 12.1255 6.80333 12.107 6.87925C12.0885 6.95517 12.0854 7.03403 12.0979 7.11117C12.1104 7.18831 12.1383 7.26214 12.1799 7.32829C12.2215 7.39443 12.276 7.45154 12.3401 7.49623C12.4042 7.54091 12.4767 7.57225 12.5531 7.5884C12.6296 7.60455 12.7085 7.60517 12.7852 7.59022C12.8619 7.57528 12.9349 7.54507 12.9997 7.5014C13.0645 7.45772 13.1198 7.40148 13.1625 7.33599ZM10.912 6.24807C11.0213 6.13868 11.0828 5.99034 11.0828 5.83566C11.0828 5.68098 11.0213 5.53263 10.912 5.42324L9.91682 4.42749V2.91666C9.91682 2.76195 9.85536 2.61357 9.74597 2.50418C9.63657 2.39478 9.4882 2.33332 9.33349 2.33332C9.17878 2.33332 9.03041 2.39478 8.92101 2.50418C8.81161 2.61357 8.75016 2.76195 8.75016 2.91666V4.66666C8.75019 4.82135 8.81167 4.9697 8.92107 5.07907L10.0877 6.24574C10.1971 6.3551 10.3455 6.41653 10.5002 6.41653C10.6548 6.41653 10.8032 6.3551 10.9126 6.24574L10.912 6.24807Z" fill="#36ACA0"></path> </g> <defs> <clipPath id="clip0_84_73"> <rect width="14" height="14" fill="white"></rect> </clipPath> </defs> </svg> 