<?xml version="1.0" encoding="UTF-8"?> <svg xmlns="http://www.w3.org/2000/svg" width="40" height="41" viewBox="0 0 40 41" fill="none"> <g clip-path="url(#clip0_64_786)"> <path d="M14.7999 37.1815C14.7999 38.912 13.3971 40.3148 11.6666 40.3148C9.93609 40.3148 8.53325 38.912 8.53325 37.1815C8.53325 35.451 9.93609 34.0481 11.6666 34.0481C13.3971 34.0481 14.7999 35.451 14.7999 37.1815Z" fill="#36ACA0" stroke="#F3FBF9" stroke-width="0.4"></path> <path d="M31.4667 37.1815C31.4667 38.912 30.0638 40.3148 28.3333 40.3148C26.6028 40.3148 25.2 38.912 25.2 37.1815C25.2 35.451 26.6028 34.0481 28.3333 34.0481C30.0638 34.0481 31.4667 35.451 31.4667 37.1815Z" fill="#36ACA0" stroke="#F3FBF9" stroke-width="0.4"></path> <path d="M39.3334 2.88084C39.6083 3.15588 39.7628 3.52887 39.7628 3.91778C39.7628 4.30668 39.6083 4.67967 39.3334 4.95471L39.3333 4.95474L30.6017 13.6931L30.6013 13.6935C30.3286 13.968 30.0041 14.1856 29.6466 14.3337C29.2891 14.4818 28.9057 14.5574 28.5188 14.5561H28.5181H28.4647C28.0704 14.5499 27.6815 14.4638 27.3213 14.3032C26.9607 14.1423 26.6365 13.91 26.3682 13.6202L26.3683 13.6202L26.3657 13.6175L23.6757 10.8192C23.6757 10.8192 23.6757 10.8192 23.6757 10.8192C23.4061 10.5387 23.259 10.1627 23.2667 9.77374C23.2705 9.58116 23.3122 9.39122 23.3894 9.21476C23.4667 9.0383 23.5779 8.87878 23.7167 8.7453C23.8556 8.61183 24.0194 8.50701 24.1988 8.43684C24.3782 8.36666 24.5696 8.33251 24.7622 8.33632C24.9548 8.34014 25.1447 8.38184 25.3212 8.45906C25.4976 8.53627 25.6571 8.64746 25.7906 8.7863C25.7906 8.78632 25.7906 8.78635 25.7906 8.78637L28.3754 11.4845L28.5168 11.6321L28.6613 11.4875L37.2595 2.88089L39.3334 2.88084ZM39.3334 2.88084C39.0583 2.60591 38.6854 2.45146 38.2965 2.45146C37.9076 2.45146 37.5347 2.60589 37.2596 2.8808L39.3334 2.88084Z" fill="#36ACA0" stroke="#F3FBF9" stroke-width="0.4"></path> <path d="M34.7602 16.9209L34.7602 16.9208C34.7943 16.7311 34.8655 16.55 34.9696 16.3879C35.0737 16.2257 35.2088 16.0857 35.367 15.9758C35.5253 15.8659 35.7037 15.7882 35.892 15.7473C36.0803 15.7063 36.2748 15.7029 36.4644 15.7371C36.8468 15.8064 37.1861 16.0246 37.4078 16.3439C37.6294 16.6632 37.7153 17.0574 37.6465 17.4399L37.4332 18.6232C37.0949 20.4999 36.1079 22.198 34.6448 23.4209C33.1816 24.6439 31.3353 25.3138 29.4283 25.3137H9.54667H9.26382L9.3581 25.5803C9.71661 26.5943 10.3807 27.4722 11.2589 28.0931C12.1371 28.7139 13.1862 29.0472 14.2617 29.047C14.2617 29.047 14.2617 29.047 14.2617 29.047H31.6667C32.0556 29.047 32.4287 29.2015 32.7038 29.4766C32.9788 29.7516 33.1333 30.1247 33.1333 30.5137C33.1333 30.9027 32.9788 31.2757 32.7038 31.5508C32.4287 31.8258 32.0556 31.9803 31.6667 31.9803H14.2617C12.2688 31.9804 10.3452 31.2487 8.8561 29.9242C7.367 28.5998 6.41601 26.7747 6.18364 24.7954L6.18363 24.7953L3.8903 5.29531L3.89029 5.29527C3.8368 4.8412 3.61852 4.42256 3.27685 4.11874C2.93519 3.81492 2.4939 3.64707 2.03669 3.64701H2.03667H1.66667C1.27768 3.64701 0.90463 3.49248 0.629577 3.21743C0.354523 2.94238 0.2 2.56932 0.2 2.18034C0.2 1.79135 0.354523 1.4183 0.629577 1.14325C0.90463 0.868195 1.27768 0.713672 1.66667 0.713672L2.03658 0.713672C2.03659 0.713672 2.0366 0.713672 2.03662 0.713672C2.03663 0.713672 2.03665 0.713672 2.03667 0.713672C3.2118 0.714193 4.34591 1.14578 5.22408 1.92664C6.10228 2.70752 6.6635 3.78343 6.80138 4.95047L6.80141 4.9507L6.87141 5.53737L6.89245 5.71367H7.07H18.3333C18.7223 5.71367 19.0954 5.8682 19.3704 6.14325C19.6455 6.4183 19.8 6.79135 19.8 7.18034C19.8 7.56932 19.6455 7.94238 19.3704 8.21743C19.0954 8.49248 18.7223 8.64701 18.3333 8.64701H7.46333H7.23846L7.2647 8.87035L8.83137 22.2037L8.85212 22.3803H9.03H29.4283C29.4283 22.3803 29.4283 22.3803 29.4283 22.3803C30.6477 22.3806 31.8283 21.9523 32.7639 21.1703C33.6995 20.3884 34.3306 19.3025 34.5468 18.1025C34.5468 18.1025 34.5468 18.1025 34.5468 18.1025L34.7602 16.9209Z" fill="#36ACA0" stroke="#F3FBF9" stroke-width="0.4"></path> </g> <defs> <clipPath id="clip0_64_786"> <rect width="40" height="40" fill="white" transform="translate(0 0.513672)"></rect> </clipPath> </defs> </svg> 