<?xml version="1.0" encoding="UTF-8"?> <svg xmlns="http://www.w3.org/2000/svg" width="40" height="41" viewBox="0 0 40 41" fill="none"> <g clip-path="url(#clip0_64_768)"> <path d="M30.9052 4.27145L30.9055 4.27152C32.5257 4.80973 33.9352 5.84487 34.9335 7.22985C35.9319 8.61484 36.4684 10.2792 36.4668 11.9865V11.9867V20.5151C36.4668 26.7317 32.6854 31.5728 28.788 34.9096C24.8937 38.2438 20.9161 40.0474 20.596 40.1888L20.5956 40.1889C20.4082 40.2722 20.2053 40.3153 20.0002 40.3153C19.795 40.3153 19.5922 40.2722 19.4047 40.1889L19.4043 40.1888C19.0842 40.0474 15.1066 38.2438 11.2123 34.9096C7.31498 31.5728 3.5335 26.7317 3.5335 20.5151L3.5335 11.9867L3.5335 11.9865C3.53193 10.2792 4.06845 8.61484 5.06681 7.22985C6.06518 5.84487 7.47462 4.80973 9.09488 4.27152L9.0951 4.27145L19.5367 0.789802C19.8376 0.689597 20.1628 0.689597 20.4636 0.789802L30.9052 4.27145ZM19.9097 37.1751L20.0004 37.2211L20.0909 37.1749C21.4994 36.4577 24.8516 34.6002 27.8545 31.776C30.8547 28.9543 33.5335 25.1413 33.5335 20.5151V11.9867C33.5334 10.8952 33.1898 9.83137 32.5515 8.94599C31.9131 8.06062 31.0123 7.39858 29.9768 7.05365C29.9767 7.05364 29.9767 7.05364 29.9767 7.05363L20.0634 3.74865L20.0002 3.72756L19.9369 3.74865L10.0236 7.05363C10.0236 7.05364 10.0236 7.05364 10.0236 7.05365C8.98801 7.39858 8.08724 8.06062 7.44888 8.94599C6.81051 9.83137 6.46693 10.8952 6.46683 11.9867V11.9867V20.5151C6.46683 25.1529 9.14468 28.9671 12.1447 31.7866C15.1472 34.6086 18.4995 36.4604 19.9097 37.1751Z" fill="#36ACA0" stroke="#F3FBF9" stroke-width="0.4"></path> <path d="M18.4632 24.7576H18.5182L12.3782 19.7576L16.2215 23.7576C16.5081 24.0672 16.8545 24.3155 17.2398 24.4873C17.6251 24.6592 18.0413 24.7512 18.4632 24.7576ZM18.4632 24.7576L18.4662 24.5577C18.4657 24.5577 18.4652 24.5576 18.4647 24.5576M18.4632 24.7576V24.5576H18.4647M18.4647 24.5576H18.5182H18.5188C18.9057 24.5589 19.2891 24.4833 19.6466 24.3352C20.0041 24.1872 20.3286 23.9695 20.6013 23.695L20.6017 23.6946L27.7217 16.5745L27.7219 16.5744C27.8588 16.4378 27.9675 16.2755 28.0417 16.0969C28.1159 15.9183 28.1542 15.7268 28.1544 15.5333C28.1546 15.3399 28.1167 15.1483 28.0429 14.9696C27.969 14.7908 27.8607 14.6283 27.7241 14.4914C27.5875 14.3545 27.4252 14.2458 27.2466 14.1716C27.068 14.0974 26.8765 14.0591 26.683 14.0589C26.4896 14.0587 26.298 14.0966 26.1193 14.1704C25.9406 14.2442 25.7782 14.3525 25.6413 14.489L25.6414 14.4888L25.4998 14.3476L25.6411 14.4892L18.6614 21.4889L18.517 21.6337L18.3755 21.4861L14.6355 17.5861L14.6322 17.5826L14.6322 17.5826C14.5002 17.4382 14.3405 17.3217 14.1627 17.2399C13.9849 17.1582 13.7925 17.1128 13.5969 17.1065C13.4013 17.1003 13.2064 17.1332 13.0237 17.2034C12.8411 17.2737 12.6743 17.3797 12.5332 17.5154C12.3922 17.6511 12.2797 17.8136 12.2025 17.9934L12.0187 17.9144L12.2025 17.9934C12.1252 18.1732 12.0847 18.3666 12.0833 18.5623C12.082 18.758 12.1198 18.952 12.1946 19.1329C12.2694 19.3138 12.3796 19.4778 12.5188 19.6154L12.5224 19.619L12.5224 19.6191L16.3657 23.6191L16.3683 23.6217L16.3682 23.6218C16.6365 23.9115 16.9607 24.1438 17.3213 24.3047C17.6815 24.4654 18.0704 24.5514 18.4647 24.5576Z" fill="#36ACA0" stroke="#F3FBF9" stroke-width="0.4"></path> </g> <defs> <clipPath id="clip0_64_768"> <rect width="40" height="40" fill="white" transform="translate(0 0.513672)"></rect> </clipPath> </defs> </svg> 