<?xml version="1.0" encoding="UTF-8"?> <svg xmlns="http://www.w3.org/2000/svg" width="40" height="41" viewBox="0 0 40 41" fill="none"> <g clip-path="url(#clip0_64_774)"> <path d="M27.9708 8.88615L28.0036 9.04587H28.1667H31.6664C33.8228 9.04845 35.8901 9.90621 37.4149 11.431C38.9397 12.9558 39.7974 15.0231 39.8 17.1794V25.512C39.7961 26.9595 39.3067 28.3638 38.4101 29.5002C37.5135 30.6366 36.2615 31.4393 34.8546 31.7798L34.6693 31.8247L34.7053 32.0119C34.7686 32.3419 34.8015 32.6769 34.8033 33.0129C34.8032 34.5068 34.2097 35.9395 33.1534 36.9959C32.0969 38.0524 30.6641 38.6459 29.17 38.6459C27.6759 38.6459 26.2431 38.0524 25.1866 36.9959C24.1304 35.9397 23.5369 34.5071 23.5367 33.0134C23.5392 32.7443 23.5613 32.4758 23.6026 32.2099L23.6385 31.9792H23.405H16.6017H16.3691L16.4039 32.2092C16.5268 33.0196 16.4714 33.847 16.2415 34.6337C16.0116 35.4205 15.6128 36.1476 15.0729 36.7643C14.533 37.381 13.865 37.8725 13.1156 38.2044C12.3662 38.5363 11.5534 38.7007 10.7338 38.6861C9.91434 38.6715 9.10789 38.4782 8.37077 38.1198C7.63366 37.7614 6.98364 37.2464 6.46608 36.6109C5.94852 35.9753 5.57588 35.2344 5.37417 34.44C5.17246 33.6456 5.14654 32.8167 5.29821 32.0112L5.33339 31.8244L5.14862 31.7798C3.74113 31.4399 2.48845 30.6375 1.5912 29.501C0.69401 28.3647 0.204126 26.9601 0.2 25.5123V10.5126C0.202616 8.35633 1.06037 6.28907 2.58512 4.76432C4.10987 3.23957 6.17713 2.38181 8.33345 2.3792H19.9999C21.8742 2.38159 23.6903 3.03007 25.1423 4.21533C26.5943 5.40062 27.5932 7.05024 27.9708 8.88615ZM36.6667 19.0459H36.8667V18.8459V17.1792C36.8667 15.8001 36.3188 14.4774 35.3436 13.5022C34.3684 12.5271 33.0458 11.9792 31.6667 11.9792H28.3333H28.1333V12.1792V18.8459V19.0459H28.3333H36.6667ZM25 29.0459H25.2V28.8459V10.5125C25.2 9.13341 24.6521 7.81077 23.677 6.83558C22.7018 5.86039 21.3791 5.31253 20 5.31253H8.33333C6.95421 5.31253 5.63157 5.86039 4.65638 6.83558C3.68119 7.81077 3.13333 9.13341 3.13333 10.5125V25.5125C3.13333 26.4496 3.50559 27.3484 4.16822 28.011C4.83085 28.6736 5.72957 29.0459 6.66667 29.0459H25ZM13.5333 33.0125L13.5333 33.0118C13.5322 32.7029 13.4753 32.3967 13.3652 32.108L13.3161 31.9792H13.1783H8.48833H8.35053L8.30145 32.108C8.1914 32.3967 8.13445 32.7029 8.13333 33.0118V33.0125C8.13333 33.7286 8.4178 34.4154 8.92414 34.9217C9.43049 35.4281 10.1172 35.7125 10.8333 35.7125C11.5494 35.7125 12.2362 35.4281 12.7425 34.9217C13.2489 34.4154 13.5333 33.7286 13.5333 33.0125ZM26.4667 33.012V33.0125C26.4667 33.7286 26.7511 34.4154 27.2575 34.9217C27.7638 35.4281 28.4506 35.7125 29.1667 35.7125C29.8828 35.7125 30.5695 35.4281 31.0759 34.9217C31.5822 34.4154 31.8667 33.7286 31.8667 33.0125L31.8667 33.012C31.8659 32.7029 31.8089 32.3965 31.6985 32.1078L31.6493 31.9792H31.5117H26.8217H26.684L26.6349 32.1078C26.5245 32.3965 26.4675 32.7029 26.4667 33.012ZM28.1333 28.8459V29.0459H28.3333H33.3333C34.2704 29.0459 35.1691 28.6736 35.8318 28.011C36.4944 27.3484 36.8667 26.4496 36.8667 25.5125V22.1792V21.9792H36.6667H28.3333H28.1333V22.1792V28.8459Z" fill="#36ACA0" stroke="#F3FBF9" stroke-width="0.4"></path> </g> <defs> <clipPath id="clip0_64_774"> <rect width="40" height="40" fill="white" transform="translate(0 0.513672)"></rect> </clipPath> </defs> </svg> 