<?xml version="1.0" encoding="UTF-8"?> <svg xmlns="http://www.w3.org/2000/svg" width="952" height="636" viewBox="0 0 952 636" fill="none"> <g clip-path="url(#clip0_62_391)"> <path d="M0 753.178C2.29346 739.418 6.63475 726.75 11.7576 713.756C26.4119 676.586 42.6581 639.789 60.8629 604.22C76.7073 573.262 94.3338 539.623 120.515 515.951C140.149 498.201 165.386 489.464 191.234 486.039C237.106 479.959 282.11 489.948 327.397 495.635C422.607 507.591 525.561 513.345 617.793 482.408C689.148 458.474 746.377 414.661 766.665 339.76C776.908 301.945 777.963 262.524 781.362 223.74C783.907 194.709 786.204 162.967 800.728 136.942C832.386 80.2133 904.503 59.6246 963.605 47.722C1003.91 39.6052 1044.94 37.4903 1085.42 30.6908C1118.42 25.1455 1147.39 12.796 1178.01 0" stroke="#4DC1B5" stroke-opacity="0.2" stroke-width="20" stroke-linecap="round"></path> </g> <defs> <clipPath id="clip0_62_391"> <rect width="952" height="636" fill="white"></rect> </clipPath> </defs> </svg> 