<?xml version="1.0" encoding="UTF-8"?> <svg xmlns="http://www.w3.org/2000/svg" width="227" height="269" viewBox="0 0 227 269" fill="none"> <path d="M76.4383 138.927C68.0306 131.425 65.6401 124.978 61.8277 126.772C55.4877 129.745 70.3631 145.52 73.2067 147.332C76.0503 149.144 79.1564 154.834 79.1564 154.834C76.4383 153.928 73.9827 153.923 58.466 150.308C42.947 146.682 31.568 132.461 32.0861 127.545C32.6041 122.632 31.1824 117.978 27.1725 119.14C23.165 120.306 24.0664 138.664 33.5125 151.47C42.9517 164.275 52.5163 170.422 65.0221 172.588C75.4788 174.4 81.4843 179.406 83.6797 181.602C85.2595 183.172 82.1975 198.57 80.3273 207.212C88.4469 210.051 97.0265 211.903 105.929 212.637V184.612C105.929 184.612 115.368 177.722 107.348 164.013C99.3265 150.306 84.8483 146.426 76.4383 138.927Z" fill="#36AB9F"></path> <path d="M201.982 119.138C197.967 117.976 196.548 122.629 197.066 127.543C197.584 132.459 186.205 146.679 170.688 150.306C155.167 153.923 152.714 153.927 149.996 154.831C149.996 154.831 153.099 149.139 155.948 147.33C158.791 145.52 173.667 129.745 167.329 126.769C163.514 124.978 161.121 131.423 152.716 138.924C144.311 146.426 129.828 150.303 121.81 164.01C113.793 177.719 123.232 184.61 123.232 184.61V212.635C132.128 211.901 140.707 210.049 148.827 207.21C146.961 198.565 143.899 183.167 145.475 181.599C147.672 179.404 153.678 174.397 164.132 172.585C176.64 170.42 186.205 164.273 195.642 151.467C205.081 138.662 205.989 120.304 201.982 119.138Z" fill="#36AB9F"></path> <path d="M124.942 38.6875C121.33 52.6406 125.853 84.4429 125.853 84.4429C172.967 41.4312 122.417 0.0828857 122.417 0.0828857C84.7624 50.8355 118.725 85.2839 118.725 85.2839C114.072 69.593 124.942 38.6875 124.942 38.6875Z" fill="#36AB9F"></path> <path d="M106.252 89.0452C92.1849 85.2189 73.8758 62.5003 73.8758 62.5003C82.7481 71.7746 108.956 83.2558 108.956 83.2558C98.4645 27.4177 43.4604 46.3192 43.4604 46.3192C64.2415 98.6168 106.252 89.0452 106.252 89.0452Z" fill="#36AB9F"></path> <path d="M49.7192 110.372C83.02 125.134 98.1022 101.676 98.1022 101.676C89.8665 106.276 71.1089 104.072 71.1089 104.072C79.4121 104.339 96.7269 97.7711 96.7269 97.7711C66.5787 76.7136 49.7192 110.372 49.7192 110.372Z" fill="#36AB9F"></path> <path d="M180.734 113.411C164.241 93.8403 147.496 104.018 147.496 104.018C154.117 103.644 165.284 110.811 165.284 110.811C160.12 108.084 147.161 106.904 147.161 106.904C159.725 129.483 180.734 113.411 180.734 113.411Z" fill="#36AB9F"></path> <path d="M130.404 90.9317C139.383 79.7431 167.124 72.1277 167.124 72.1277C155.253 76.5023 134.574 95.6454 134.574 95.6454C189.144 108.142 193.699 51.0191 193.699 51.0191C138.277 49.214 130.404 90.9317 130.404 90.9317Z" fill="#36AB9F"></path> <path d="M23.9836 242.342C24.0836 243.569 24.287 244.592 24.5936 245.412C24.9003 246.232 25.3803 246.969 26.0336 247.622L25.6436 248.102H19.1436L18.7836 247.092L19.4736 246.912C20.107 246.712 20.547 246.459 20.7936 246.152C21.0403 245.846 21.1636 245.386 21.1636 244.772L21.1036 243.672L20.2436 231.292L14.0336 245.962H12.4336L6.22362 231.292L5.57362 240.442C5.45362 241.829 5.39362 242.799 5.39362 243.352C5.39362 244.166 5.47696 244.852 5.64362 245.412C5.81029 245.979 6.08362 246.539 6.46362 247.092L6.81362 247.622L6.37362 248.102H0.793617L0.463623 247.092L1.14362 246.912C1.91696 246.679 2.44695 246.382 2.73362 246.022C3.02029 245.669 3.19362 245.046 3.25362 244.152L4.05362 232.392C4.07362 232.132 4.10362 231.776 4.14362 231.322C4.18362 230.869 4.20362 230.462 4.20362 230.102C4.20362 229.429 4.08028 228.946 3.83362 228.652C3.58695 228.352 3.13695 228.122 2.48362 227.962L1.79362 227.792L2.12362 226.782H7.53362L13.6536 241.712L19.9436 226.782H24.2236L24.6636 227.252L24.3136 227.792C23.9336 228.346 23.6603 228.902 23.4936 229.462C23.327 230.029 23.2436 230.719 23.2436 231.532C23.2436 231.826 23.2936 232.716 23.3936 234.202L23.9836 242.342Z" fill="#36AB9F"></path> <path d="M37.9137 238.122V244.152C37.9137 244.786 37.9637 245.262 38.0637 245.582C38.1637 245.896 38.347 246.112 38.6137 246.232C38.8804 246.352 39.2804 246.412 39.8137 246.412H43.0237C43.737 246.412 44.2904 246.336 44.6837 246.182C45.0837 246.036 45.397 245.779 45.6237 245.412C45.8504 245.046 46.0637 244.496 46.2637 243.762L46.4337 243.082L47.4437 243.442V248.522L46.8537 248.842L46.6137 248.522C46.4004 248.242 45.9837 248.102 45.3637 248.102H32.8637L32.5337 247.152L33.1637 246.972C33.897 246.752 34.3804 246.476 34.6137 246.142C34.8537 245.802 34.9737 245.209 34.9737 244.362V232.752C34.9737 231.559 34.8737 230.596 34.6737 229.862C34.4804 229.136 34.1337 228.446 33.6337 227.792L33.2537 227.252L33.6337 226.782H42.7237C44.4304 226.782 45.5604 226.572 46.1137 226.152L46.6437 225.772L47.1237 226.152V231.442L46.1137 231.792L45.9337 231.112C45.7337 230.379 45.5204 229.829 45.2937 229.462C45.067 229.096 44.757 228.839 44.3637 228.692C43.9637 228.546 43.407 228.472 42.6937 228.472H39.8137C39.2804 228.472 38.8804 228.532 38.6137 228.652C38.347 228.766 38.1637 228.982 38.0637 229.302C37.9637 229.622 37.9137 230.099 37.9137 230.732V236.432H41.6837C42.157 236.432 42.577 236.329 42.9437 236.122C43.3104 235.909 43.6737 235.556 44.0337 235.062L44.2737 234.732L44.8637 235.062V240.142L43.8537 240.502L43.6737 239.812C43.4937 239.139 43.1837 238.689 42.7437 238.462C42.297 238.236 41.527 238.122 40.4337 238.122H37.9137Z" fill="#36AB9F"></path> <path d="M54.6936 248.102L54.3336 247.092L55.0236 246.912C55.6569 246.732 56.1303 246.469 56.4436 246.122C56.7636 245.782 56.9236 245.236 56.9236 244.482V229.482C56.9236 229.222 56.8736 229.039 56.7736 228.932C56.6736 228.826 56.5036 228.772 56.2636 228.772H54.5436L54.1936 227.672C55.1403 227.332 56.3669 227.029 57.8736 226.762C59.3803 226.496 60.8336 226.362 62.2336 226.362C66.3736 226.362 69.3503 227.386 71.1636 229.432C72.9769 231.486 73.8836 234.166 73.8836 237.472C73.8836 239.492 73.5103 241.302 72.7636 242.902C72.0236 244.509 70.9169 245.776 69.4436 246.702C67.9636 247.636 66.1569 248.102 64.0236 248.102H54.6936ZM59.8636 242.902C59.8636 244.309 60.1536 245.276 60.7336 245.802C61.3203 246.329 62.1003 246.592 63.0736 246.592C68.1203 246.592 70.6436 243.532 70.6436 237.412C70.6436 235.746 70.3569 234.199 69.7836 232.772C69.2103 231.352 68.3336 230.206 67.1536 229.332C65.9736 228.459 64.5136 228.022 62.7736 228.022C60.8336 228.022 59.8636 228.479 59.8636 229.392V242.902Z" fill="#36AB9F"></path> <path d="M80.2936 248.102L79.9436 247.092L80.6236 246.912C81.3769 246.699 81.8803 246.412 82.1336 246.052C82.3936 245.699 82.5236 245.066 82.5236 244.152V230.732C82.5236 229.819 82.3936 229.182 82.1336 228.822C81.8803 228.469 81.3769 228.182 80.6236 227.962L79.9436 227.792L80.2936 226.782H86.8036L87.1836 227.252L86.8036 227.792C86.3036 228.446 85.9569 229.136 85.7636 229.862C85.5636 230.596 85.4636 231.559 85.4636 232.752V244.362C85.4636 245.209 85.5836 245.802 85.8236 246.142C86.0569 246.476 86.5403 246.752 87.2736 246.972L87.9036 247.152L87.5736 248.102H80.2936Z" fill="#36AB9F"></path> <path d="M106.644 248.102L106.284 247.092L106.964 246.912C107.444 246.792 107.787 246.636 107.994 246.442C108.2 246.242 108.304 245.966 108.304 245.612C108.304 245.292 108.194 244.806 107.974 244.152L106.554 239.992H99.6935L98.9735 242.162C98.5202 243.529 98.2935 244.569 98.2935 245.282C98.2935 245.956 98.4335 246.559 98.7135 247.092L98.9735 247.622L98.4135 248.102H92.9435L92.5935 247.092L93.2735 246.912C94.0668 246.699 94.6402 246.412 94.9935 246.052C95.3535 245.699 95.6902 245.066 96.0035 244.152L100.674 230.732C100.887 230.079 100.994 229.592 100.994 229.272C100.994 228.919 100.89 228.642 100.684 228.442C100.477 228.242 100.137 228.082 99.6635 227.962L98.9735 227.792L99.3335 226.782H105.064L111.034 244.002C111.354 244.916 111.7 245.609 112.074 246.082C112.454 246.556 112.997 247.069 113.704 247.622L113.324 248.102H106.644ZM103.074 229.832L100.314 238.152H105.924L103.074 229.832Z" fill="#36AB9F"></path> <path d="M124.574 244.152C124.574 244.786 124.624 245.262 124.724 245.582C124.824 245.896 125.007 246.112 125.274 246.232C125.54 246.352 125.944 246.412 126.484 246.412H129.064C129.777 246.412 130.33 246.336 130.724 246.182C131.124 246.036 131.437 245.779 131.664 245.412C131.89 245.046 132.104 244.496 132.304 243.762L132.474 243.082L133.484 243.442V248.522L132.894 248.842L132.654 248.522C132.44 248.242 132.027 248.102 131.414 248.102H119.534L119.204 247.152L119.824 246.972C120.557 246.752 121.044 246.476 121.284 246.142C121.517 245.802 121.634 245.209 121.634 244.362V230.732C121.634 229.819 121.507 229.182 121.254 228.822C120.994 228.469 120.487 228.182 119.734 227.962L119.054 227.792L119.414 226.782H125.914L126.304 227.252L125.914 227.792C125.42 228.446 125.074 229.136 124.874 229.862C124.674 230.596 124.574 231.559 124.574 232.752V244.152Z" fill="#36AB9F"></path> <path d="M139.014 240.622C139.014 240.222 139.077 239.826 139.204 239.432C139.337 239.032 139.53 238.736 139.784 238.542L147.594 238.242C147.594 238.656 147.534 239.056 147.414 239.442C147.3 239.829 147.104 240.122 146.824 240.322L139.014 240.622Z" fill="#36AB9F"></path> <path d="M176.374 242.342C176.474 243.569 176.677 244.592 176.984 245.412C177.29 246.232 177.77 246.969 178.424 247.622L178.034 248.102H171.534L171.174 247.092L171.864 246.912C172.497 246.712 172.937 246.459 173.184 246.152C173.43 245.846 173.554 245.386 173.554 244.772L173.494 243.672L172.634 231.292L166.424 245.962H164.824L158.614 231.292L157.964 240.442C157.844 241.829 157.784 242.799 157.784 243.352C157.784 244.166 157.867 244.852 158.034 245.412C158.2 245.979 158.474 246.539 158.854 247.092L159.204 247.622L158.764 248.102H153.184L152.854 247.092L153.534 246.912C154.307 246.679 154.837 246.382 155.124 246.022C155.41 245.669 155.584 245.046 155.644 244.152L156.444 232.392C156.464 232.132 156.494 231.776 156.534 231.322C156.574 230.869 156.594 230.462 156.594 230.102C156.594 229.429 156.47 228.946 156.224 228.652C155.977 228.352 155.527 228.122 154.874 227.962L154.194 227.792L154.514 226.782H159.924L166.044 241.712L172.334 226.782H176.614L177.054 227.252L176.704 227.792C176.324 228.346 176.05 228.902 175.884 229.462C175.717 230.029 175.634 230.719 175.634 231.532C175.634 231.826 175.684 232.716 175.784 234.202L176.374 242.342Z" fill="#36AB9F"></path> <path d="M190.304 238.122V244.152C190.304 244.786 190.354 245.262 190.454 245.582C190.554 245.896 190.737 246.112 191.004 246.232C191.27 246.352 191.67 246.412 192.204 246.412H195.414C196.127 246.412 196.68 246.336 197.074 246.182C197.474 246.036 197.787 245.779 198.014 245.412C198.24 245.046 198.454 244.496 198.654 243.762L198.824 243.082L199.834 243.442V248.522L199.244 248.842L199.004 248.522C198.79 248.242 198.377 248.102 197.764 248.102H185.254L184.934 247.152L185.554 246.972C186.287 246.752 186.77 246.476 187.004 246.142C187.244 245.802 187.364 245.209 187.364 244.362V232.752C187.364 231.559 187.264 230.596 187.064 229.862C186.87 229.136 186.524 228.446 186.024 227.792L185.644 227.252L186.024 226.782H195.114C196.82 226.782 197.95 226.572 198.504 226.152L199.034 225.772L199.514 226.152V231.442L198.504 231.792L198.324 231.112C198.124 230.379 197.91 229.829 197.684 229.462C197.457 229.096 197.147 228.839 196.754 228.692C196.354 228.546 195.797 228.472 195.084 228.472H192.204C191.67 228.472 191.27 228.532 191.004 228.652C190.737 228.766 190.554 228.982 190.454 229.302C190.354 229.622 190.304 230.099 190.304 230.732V236.432H194.074C194.554 236.432 194.977 236.329 195.344 236.122C195.704 235.909 196.064 235.556 196.424 235.062L196.664 234.732L197.254 235.062V240.142L196.244 240.502L196.064 239.812C195.89 239.139 195.58 238.689 195.134 238.462C194.687 238.236 193.92 238.122 192.834 238.122H190.304Z" fill="#36AB9F"></path> <path d="M207.083 248.102L206.723 247.092L207.413 246.912C208.047 246.732 208.52 246.469 208.833 246.122C209.153 245.782 209.313 245.236 209.313 244.482V229.482C209.313 229.222 209.263 229.039 209.163 228.932C209.063 228.826 208.897 228.772 208.663 228.772H206.933L206.583 227.672C207.53 227.332 208.757 227.029 210.263 226.762C211.77 226.496 213.227 226.362 214.633 226.362C218.767 226.362 221.74 227.386 223.553 229.432C225.367 231.486 226.273 234.166 226.273 237.472C226.273 239.492 225.9 241.302 225.153 242.902C224.413 244.509 223.307 245.776 221.833 246.702C220.353 247.636 218.547 248.102 216.413 248.102H207.083ZM212.253 242.902C212.253 244.309 212.547 245.276 213.133 245.802C213.713 246.329 214.49 246.592 215.464 246.592C220.51 246.592 223.034 243.532 223.034 237.412C223.034 235.746 222.747 234.199 222.174 232.772C221.6 231.352 220.723 230.206 219.543 229.332C218.363 228.459 216.903 228.022 215.163 228.022C213.223 228.022 212.253 228.479 212.253 229.392V242.902Z" fill="#36AB9F"></path> <path d="M153.403 268.579H75.8414C75.2834 268.579 74.9114 268.011 74.9114 267.159C74.9114 266.307 75.2834 265.739 75.8414 265.739H153.31C153.868 265.739 154.24 266.307 154.24 267.159C154.24 268.011 153.868 268.579 153.403 268.579Z" fill="#36AB9F"></path> </svg> 