<?xml version="1.0" encoding="UTF-8"?> <svg xmlns="http://www.w3.org/2000/svg" width="37" height="81" viewBox="0 0 37 81" fill="none"> <g clip-path="url(#clip0_62_647)"> <path d="M13.9329 80.5137C6.25031 80.5137 0 74.2053 0 66.4512V19.2637C0 8.92492 8.33375 0.513672 18.5772 0.513672C28.8207 0.513672 37 6.50145 37 16.8402H32.3031L32.2281 16.9581C32.2281 9.20405 26.2598 5.20117 18.5772 5.20117C10.8946 5.20117 4.64431 11.5096 4.64431 19.2637V66.4512C4.64431 71.6206 8.81118 75.8262 13.9329 75.8262C19.0547 75.8262 23.2215 71.6206 23.2215 66.4512V28.6387C23.2215 26.054 21.1381 23.9512 18.5772 23.9512C16.0164 23.9512 13.9329 26.054 13.9329 28.6387V66.4512H9.28862V28.6387C9.28862 23.4693 13.4555 19.2637 18.5772 19.2637C23.699 19.2637 27.8658 23.4693 27.8658 28.6387V66.4512C27.8658 74.2053 21.6155 80.5137 13.9329 80.5137Z" fill="#36ACA0"></path> </g> <defs> <clipPath id="clip0_62_647"> <rect width="37" height="80" fill="white" transform="translate(0 0.513672)"></rect> </clipPath> </defs> </svg> 