<?xml version="1.0" encoding="UTF-8"?> <svg xmlns="http://www.w3.org/2000/svg" width="1103" height="653" viewBox="0 0 1103 653" fill="none"> <path d="M11 763.692C13.2935 749.931 17.6347 737.263 22.7576 724.27C37.4119 687.1 53.6581 650.303 71.8629 614.734C87.7073 583.776 105.334 550.136 131.515 526.465C151.149 508.715 176.386 499.978 202.234 496.552C248.106 490.473 293.11 500.461 338.397 506.149C433.607 518.105 536.561 523.858 628.793 492.921C700.148 468.987 757.377 425.175 777.665 350.274C787.908 312.459 788.963 273.038 792.362 234.254C794.907 205.222 797.204 173.481 811.728 147.455C843.386 90.727 915.503 70.1383 974.605 58.2357C1014.91 50.1188 1055.94 48.0039 1096.42 41.2045C1129.42 35.6592 1158.39 23.3096 1189.01 10.5137" stroke="white" stroke-opacity="0.2" stroke-width="20" stroke-linecap="round"></path> </svg> 